# xmcd
# Track frame offsets:
# 150
# 3806
# 16401
# 30825
# 43063
# 57350
# 76536
# 89879
# 100977
# 117531
# 128691
# 143139
# 157464
# 172051
# 186151
# 198114
# 211464
# 226464
#
# Disc length: 3227 seconds
# Revision: 2
# Processed by: cddbd v1.5.2PL0 Copyright (c) Steve Scherf et al.
# Submitted via: VisiTrax 2.11.2.271 - For more info visit www.synapsa.com
#
DISCID=f30c9912
DTITLE=Slim Dusty - The Man Who Is Australia Disc 4
DYEAR=2000
DGENRE=Australian Country
TTITLE0=Introduction And Space Shuttle Broadcase 1981
TTITLE1=Walk A Country Mile
TTITLE2=Middleton's Rouseabout
TTITLE3=Dinki-Di Aussie
TTITLE4=Indian Pacific
TTITLE5=Medley: I Must Have Good Terbaccy When I Smoke/Sweeney/Trumby
TTITLE6=The Biggest Disappointment
TTITLE7=She'll Be Right Mate
TTITLE8=He's A Good Bloke When He's Sober, But...
TTITLE9=Duncan
TTITLE10=Cattlemen From The High Plains
TTITLE11=Glory Bound Train
TTITLE12=The Pub With No Beer
TTITLE13=My Dad Was A Road Train Man
TTITLE14=Charleville
TTITLE15=The Lights On The Hill
TTITLE16=Walk A Country Mile
TTITLE17=Abalinga Mail
EXTD=Live In Concert EMI Music Australia
EXTT0=
EXTT1=
EXTT2=
EXTT3=
EXTT4=
EXTT5=
EXTT6=
EXTT7=
EXTT8=
EXTT9=
EXTT10=
EXTT11=
EXTT12=
EXTT13=
EXTT14=
EXTT15=
EXTT16=
EXTT17=
PLAYORDER=
